<mxfile host="app.diagrams.net" modified="2020-11-03T01:16:50.505Z" agent="5.0 (Windows NT 10.0; Win64; x64) AppleWebKit/537.36 (KHTML, like Gecko) Chrome/86.0.4240.111 Safari/537.36" etag="bROtOFi6zDzoXjHGCxAe" version="13.8.5" type="github">
  <diagram id="VM9gNFSTtRiQbZlDsglk" name="Page-1">
    <mxGraphModel dx="496" dy="1913" grid="1" gridSize="10" guides="1" tooltips="1" connect="1" arrows="1" fold="1" page="1" pageScale="1" pageWidth="1169" pageHeight="1654" math="0" shadow="0">
      <root>
        <mxCell id="0" />
        <mxCell id="1" parent="0" />
        <mxCell id="r10WBX3e6Jypb6VtqJ61-32" value="&lt;b&gt;&amp;nbsp;Diagram Biblioteka&lt;/b&gt;" style="html=1;shape=mxgraph.sysml.package;xSize=90;align=left;spacingLeft=10;overflow=fill;strokeWidth=1;recursiveResize=0;labelX=135.71;" vertex="1" parent="1">
          <mxGeometry x="8" y="-100" width="1270" height="900" as="geometry" />
        </mxCell>
        <mxCell id="r10WBX3e6Jypb6VtqJ61-43" style="rounded=0;orthogonalLoop=1;jettySize=auto;html=1;exitX=0.5;exitY=0;exitDx=0;exitDy=0;entryX=0.126;entryY=1.009;entryDx=0;entryDy=0;entryPerimeter=0;endArrow=blockThin;endFill=0;" edge="1" parent="1" source="BHRHvB2tTrrgc57krQOK-1" target="r10WBX3e6Jypb6VtqJ61-4">
          <mxGeometry relative="1" as="geometry" />
        </mxCell>
        <mxCell id="BHRHvB2tTrrgc57krQOK-1" value="Kierownik&#xa;Biblioteki" style="swimlane;fontStyle=1;align=center;verticalAlign=top;childLayout=stackLayout;horizontal=1;startSize=50;horizontalStack=0;resizeParent=1;resizeParentMax=0;resizeLast=0;collapsible=1;marginBottom=0;" parent="1" vertex="1">
          <mxGeometry x="350" y="230" width="200" height="180" as="geometry" />
        </mxCell>
        <mxCell id="BHRHvB2tTrrgc57krQOK-2" value="+ login:&#xa;+ hasło:&#xa;+ uprawienie:" style="text;strokeColor=none;fillColor=none;align=left;verticalAlign=top;spacingLeft=4;spacingRight=4;overflow=hidden;rotatable=0;points=[[0,0.5],[1,0.5]];portConstraint=eastwest;" parent="BHRHvB2tTrrgc57krQOK-1" vertex="1">
          <mxGeometry y="50" width="200" height="50" as="geometry" />
        </mxCell>
        <mxCell id="BHRHvB2tTrrgc57krQOK-3" value="" style="line;strokeWidth=1;fillColor=none;align=left;verticalAlign=middle;spacingTop=-1;spacingLeft=3;spacingRight=3;rotatable=0;labelPosition=right;points=[];portConstraint=eastwest;" parent="BHRHvB2tTrrgc57krQOK-1" vertex="1">
          <mxGeometry y="100" width="200" height="4" as="geometry" />
        </mxCell>
        <mxCell id="BHRHvB2tTrrgc57krQOK-4" value="+ logowanieDoSystemu()&#xa;+ edycjaUżytkowników()&#xa;+ nadawaniePrawUżytkownikom()&#xa;+ zamawianieNowychZasobów()" style="text;strokeColor=none;fillColor=none;align=left;verticalAlign=top;spacingLeft=4;spacingRight=4;overflow=hidden;rotatable=0;points=[[0,0.5],[1,0.5]];portConstraint=eastwest;" parent="BHRHvB2tTrrgc57krQOK-1" vertex="1">
          <mxGeometry y="104" width="200" height="76" as="geometry" />
        </mxCell>
        <mxCell id="BHRHvB2tTrrgc57krQOK-6" value="Administrator&#xa;Systemu" style="swimlane;fontStyle=1;align=center;verticalAlign=top;childLayout=stackLayout;horizontal=1;startSize=40;horizontalStack=0;resizeParent=1;resizeParentMax=0;resizeLast=0;collapsible=1;marginBottom=0;" parent="1" vertex="1">
          <mxGeometry x="20" y="230" width="300" height="190" as="geometry" />
        </mxCell>
        <mxCell id="BHRHvB2tTrrgc57krQOK-7" value="+ login:&#xa;+ hasło:&#xa;+ uprawienie:" style="text;strokeColor=none;fillColor=none;align=left;verticalAlign=top;spacingLeft=4;spacingRight=4;overflow=hidden;rotatable=0;points=[[0,0.5],[1,0.5]];portConstraint=eastwest;" parent="BHRHvB2tTrrgc57krQOK-6" vertex="1">
          <mxGeometry y="40" width="300" height="50" as="geometry" />
        </mxCell>
        <mxCell id="BHRHvB2tTrrgc57krQOK-8" value="" style="line;strokeWidth=1;fillColor=none;align=left;verticalAlign=middle;spacingTop=-1;spacingLeft=3;spacingRight=3;rotatable=0;labelPosition=right;points=[];portConstraint=eastwest;" parent="BHRHvB2tTrrgc57krQOK-6" vertex="1">
          <mxGeometry y="90" width="300" height="4" as="geometry" />
        </mxCell>
        <mxCell id="BHRHvB2tTrrgc57krQOK-9" value="+ logowanieDoSystemu()&#xa;+ wyszukiwanieUżykowników()&#xa;+ dodawanieNowegoUżytkownika()&#xa;+ usuwanieUżytkownikaSystemu()&#xa;+ zablokowanie/odblokowanieUżytkownikaSystemu()&#xa;+ nadawaniePrawUżytkownikom()" style="text;strokeColor=none;fillColor=none;align=left;verticalAlign=top;spacingLeft=4;spacingRight=4;overflow=hidden;rotatable=0;points=[[0,0.5],[1,0.5]];portConstraint=eastwest;" parent="BHRHvB2tTrrgc57krQOK-6" vertex="1">
          <mxGeometry y="94" width="300" height="96" as="geometry" />
        </mxCell>
        <mxCell id="r10WBX3e6Jypb6VtqJ61-1" value="&lt;&lt;Interface&gt;&gt;&#xa;Zarządzanie&#xa;użytkownikami" style="swimlane;fontStyle=1;align=center;verticalAlign=top;childLayout=stackLayout;horizontal=1;startSize=50;horizontalStack=0;resizeParent=1;resizeParentMax=0;resizeLast=0;collapsible=1;marginBottom=0;" vertex="1" parent="1">
          <mxGeometry x="585" y="-10" width="160" height="120" as="geometry" />
        </mxCell>
        <mxCell id="r10WBX3e6Jypb6VtqJ61-2" value="+ nazwa: string" style="text;strokeColor=none;fillColor=none;align=left;verticalAlign=top;spacingLeft=4;spacingRight=4;overflow=hidden;rotatable=0;points=[[0,0.5],[1,0.5]];portConstraint=eastwest;" vertex="1" parent="r10WBX3e6Jypb6VtqJ61-1">
          <mxGeometry y="50" width="160" height="30" as="geometry" />
        </mxCell>
        <mxCell id="r10WBX3e6Jypb6VtqJ61-3" value="" style="line;strokeWidth=1;fillColor=none;align=left;verticalAlign=middle;spacingTop=-1;spacingLeft=3;spacingRight=3;rotatable=0;labelPosition=right;points=[];portConstraint=eastwest;" vertex="1" parent="r10WBX3e6Jypb6VtqJ61-1">
          <mxGeometry y="80" width="160" height="4" as="geometry" />
        </mxCell>
        <mxCell id="r10WBX3e6Jypb6VtqJ61-4" value="+ sprawdzdostep()" style="text;strokeColor=none;fillColor=none;align=left;verticalAlign=top;spacingLeft=4;spacingRight=4;overflow=hidden;rotatable=0;points=[[0,0.5],[1,0.5]];portConstraint=eastwest;" vertex="1" parent="r10WBX3e6Jypb6VtqJ61-1">
          <mxGeometry y="84" width="160" height="36" as="geometry" />
        </mxCell>
        <mxCell id="r10WBX3e6Jypb6VtqJ61-47" style="edgeStyle=none;rounded=0;orthogonalLoop=1;jettySize=auto;html=1;exitX=0.5;exitY=0;exitDx=0;exitDy=0;entryX=1;entryY=0.5;entryDx=0;entryDy=0;endArrow=blockThin;endFill=0;" edge="1" parent="1" source="r10WBX3e6Jypb6VtqJ61-14" target="r10WBX3e6Jypb6VtqJ61-2">
          <mxGeometry relative="1" as="geometry" />
        </mxCell>
        <mxCell id="r10WBX3e6Jypb6VtqJ61-14" value="Użytkownik&#xa;Niezarejestrowany" style="swimlane;fontStyle=1;align=center;verticalAlign=top;childLayout=stackLayout;horizontal=1;startSize=50;horizontalStack=0;resizeParent=1;resizeParentMax=0;resizeLast=0;collapsible=1;marginBottom=0;" vertex="1" parent="1">
          <mxGeometry x="1100" y="200" width="150" height="200" as="geometry" />
        </mxCell>
        <mxCell id="r10WBX3e6Jypb6VtqJ61-15" value="+ login:&#xa;+ hasło:&#xa;+ uprawienie:&#xa;+ nazwisko:&#xa;+ adresZamieszkania:&#xa;+ telefon:&#xa;+ uprawnienie:" style="text;strokeColor=none;fillColor=none;align=left;verticalAlign=top;spacingLeft=4;spacingRight=4;overflow=hidden;rotatable=0;points=[[0,0.5],[1,0.5]];portConstraint=eastwest;" vertex="1" parent="r10WBX3e6Jypb6VtqJ61-14">
          <mxGeometry y="50" width="150" height="110" as="geometry" />
        </mxCell>
        <mxCell id="r10WBX3e6Jypb6VtqJ61-16" value="" style="line;strokeWidth=1;fillColor=none;align=left;verticalAlign=middle;spacingTop=-1;spacingLeft=3;spacingRight=3;rotatable=0;labelPosition=right;points=[];portConstraint=eastwest;" vertex="1" parent="r10WBX3e6Jypb6VtqJ61-14">
          <mxGeometry y="160" width="150" height="4" as="geometry" />
        </mxCell>
        <mxCell id="r10WBX3e6Jypb6VtqJ61-17" value="+ rejestracja()&#xa;+ logowanie()" style="text;strokeColor=none;fillColor=none;align=left;verticalAlign=top;spacingLeft=4;spacingRight=4;overflow=hidden;rotatable=0;points=[[0,0.5],[1,0.5]];portConstraint=eastwest;" vertex="1" parent="r10WBX3e6Jypb6VtqJ61-14">
          <mxGeometry y="164" width="150" height="36" as="geometry" />
        </mxCell>
        <mxCell id="r10WBX3e6Jypb6VtqJ61-49" style="edgeStyle=none;rounded=0;orthogonalLoop=1;jettySize=auto;html=1;exitX=0.5;exitY=0;exitDx=0;exitDy=0;entryX=0.586;entryY=1.013;entryDx=0;entryDy=0;entryPerimeter=0;endArrow=blockThin;endFill=0;" edge="1" parent="1" source="r10WBX3e6Jypb6VtqJ61-19" target="BHRHvB2tTrrgc57krQOK-4">
          <mxGeometry relative="1" as="geometry" />
        </mxCell>
        <mxCell id="r10WBX3e6Jypb6VtqJ61-50" style="edgeStyle=none;rounded=0;orthogonalLoop=1;jettySize=auto;html=1;endArrow=blockThin;endFill=0;" edge="1" parent="1" source="r10WBX3e6Jypb6VtqJ61-19" target="r10WBX3e6Jypb6VtqJ61-9">
          <mxGeometry relative="1" as="geometry" />
        </mxCell>
        <mxCell id="r10WBX3e6Jypb6VtqJ61-19" value="Konto Pracownika" style="swimlane;fontStyle=1;align=center;verticalAlign=top;childLayout=stackLayout;horizontal=1;startSize=40;horizontalStack=0;resizeParent=1;resizeParentMax=0;resizeLast=0;collapsible=1;marginBottom=0;" vertex="1" parent="1">
          <mxGeometry x="460" y="480" width="160" height="150" as="geometry" />
        </mxCell>
        <mxCell id="r10WBX3e6Jypb6VtqJ61-20" value="+ nr.Zasobu:&#xa;+ tytułZasobu:" style="text;strokeColor=none;fillColor=none;align=left;verticalAlign=top;spacingLeft=4;spacingRight=4;overflow=hidden;rotatable=0;points=[[0,0.5],[1,0.5]];portConstraint=eastwest;" vertex="1" parent="r10WBX3e6Jypb6VtqJ61-19">
          <mxGeometry y="40" width="160" height="40" as="geometry" />
        </mxCell>
        <mxCell id="r10WBX3e6Jypb6VtqJ61-21" value="" style="line;strokeWidth=1;fillColor=none;align=left;verticalAlign=middle;spacingTop=-1;spacingLeft=3;spacingRight=3;rotatable=0;labelPosition=right;points=[];portConstraint=eastwest;" vertex="1" parent="r10WBX3e6Jypb6VtqJ61-19">
          <mxGeometry y="80" width="160" height="4" as="geometry" />
        </mxCell>
        <mxCell id="r10WBX3e6Jypb6VtqJ61-22" value="+ dodawanieZasobów()&#xa;+ usuwanieZasobów()&#xa;+ wydawanieZasobów()" style="text;strokeColor=none;fillColor=none;align=left;verticalAlign=top;spacingLeft=4;spacingRight=4;overflow=hidden;rotatable=0;points=[[0,0.5],[1,0.5]];portConstraint=eastwest;" vertex="1" parent="r10WBX3e6Jypb6VtqJ61-19">
          <mxGeometry y="84" width="160" height="66" as="geometry" />
        </mxCell>
        <mxCell id="r10WBX3e6Jypb6VtqJ61-48" style="edgeStyle=none;rounded=0;orthogonalLoop=1;jettySize=auto;html=1;exitX=0.75;exitY=0;exitDx=0;exitDy=0;entryX=0.276;entryY=0.995;entryDx=0;entryDy=0;entryPerimeter=0;endArrow=blockThin;endFill=0;" edge="1" parent="1" source="r10WBX3e6Jypb6VtqJ61-23" target="BHRHvB2tTrrgc57krQOK-4">
          <mxGeometry relative="1" as="geometry" />
        </mxCell>
        <mxCell id="r10WBX3e6Jypb6VtqJ61-23" value="Analiza funkcjonowania e-biblioteki" style="swimlane;fontStyle=1;align=center;verticalAlign=top;childLayout=stackLayout;horizontal=1;startSize=40;horizontalStack=0;resizeParent=1;resizeParentMax=0;resizeLast=0;collapsible=1;marginBottom=0;" vertex="1" parent="1">
          <mxGeometry x="30" y="480" width="280" height="130" as="geometry" />
        </mxCell>
        <mxCell id="r10WBX3e6Jypb6VtqJ61-24" value="+ nr.Reportu:&#xa;+ ocenaPracy:" style="text;strokeColor=none;fillColor=none;align=left;verticalAlign=top;spacingLeft=4;spacingRight=4;overflow=hidden;rotatable=0;points=[[0,0.5],[1,0.5]];portConstraint=eastwest;" vertex="1" parent="r10WBX3e6Jypb6VtqJ61-23">
          <mxGeometry y="40" width="280" height="40" as="geometry" />
        </mxCell>
        <mxCell id="r10WBX3e6Jypb6VtqJ61-25" value="" style="line;strokeWidth=1;fillColor=none;align=left;verticalAlign=middle;spacingTop=-1;spacingLeft=3;spacingRight=3;rotatable=0;labelPosition=right;points=[];portConstraint=eastwest;" vertex="1" parent="r10WBX3e6Jypb6VtqJ61-23">
          <mxGeometry y="80" width="280" height="4" as="geometry" />
        </mxCell>
        <mxCell id="r10WBX3e6Jypb6VtqJ61-26" value="+ generowanieRaportów()&#xa;+ nadzórEbibliotekarza()" style="text;strokeColor=none;fillColor=none;align=left;verticalAlign=top;spacingLeft=4;spacingRight=4;overflow=hidden;rotatable=0;points=[[0,0.5],[1,0.5]];portConstraint=eastwest;" vertex="1" parent="r10WBX3e6Jypb6VtqJ61-23">
          <mxGeometry y="84" width="280" height="46" as="geometry" />
        </mxCell>
        <mxCell id="r10WBX3e6Jypb6VtqJ61-51" style="edgeStyle=none;rounded=0;orthogonalLoop=1;jettySize=auto;html=1;exitX=0.5;exitY=0;exitDx=0;exitDy=0;endArrow=blockThin;endFill=0;" edge="1" parent="1" source="r10WBX3e6Jypb6VtqJ61-28" target="r10WBX3e6Jypb6VtqJ61-13">
          <mxGeometry relative="1" as="geometry" />
        </mxCell>
        <mxCell id="r10WBX3e6Jypb6VtqJ61-52" value="" style="edgeStyle=none;rounded=0;orthogonalLoop=1;jettySize=auto;html=1;exitX=0.75;exitY=0;exitDx=0;exitDy=0;endArrow=blockThin;endFill=0;" edge="1" parent="1">
          <mxGeometry relative="1" as="geometry">
            <mxPoint x="937.5" y="481" as="sourcePoint" />
            <mxPoint x="1131.3775510204082" y="401" as="targetPoint" />
          </mxGeometry>
        </mxCell>
        <mxCell id="r10WBX3e6Jypb6VtqJ61-28" value="Konto Czytelnika" style="swimlane;fontStyle=1;align=center;verticalAlign=top;childLayout=stackLayout;horizontal=1;startSize=40;horizontalStack=0;resizeParent=1;resizeParentMax=0;resizeLast=0;collapsible=1;marginBottom=0;" vertex="1" parent="1">
          <mxGeometry x="810" y="480" width="170" height="280" as="geometry" />
        </mxCell>
        <mxCell id="r10WBX3e6Jypb6VtqJ61-29" value="+ nr.ISBN:&#xa;+ nr.Zamówienia&#xa;+ tytułZasobu:&#xa;+ dataZamówienia:&#xa;+ formaZapłaty:&#xa;+ dataZapłaty:&#xa;+ statusZapłaty:&#xa;+ wydawca:&#xa;+ cenaZasobu:&#xa;&#xa;" style="text;strokeColor=none;fillColor=none;align=left;verticalAlign=top;spacingLeft=4;spacingRight=4;overflow=hidden;rotatable=0;points=[[0,0.5],[1,0.5]];portConstraint=eastwest;" vertex="1" parent="r10WBX3e6Jypb6VtqJ61-28">
          <mxGeometry y="40" width="170" height="140" as="geometry" />
        </mxCell>
        <mxCell id="r10WBX3e6Jypb6VtqJ61-30" value="" style="line;strokeWidth=1;fillColor=none;align=left;verticalAlign=middle;spacingTop=-1;spacingLeft=3;spacingRight=3;rotatable=0;labelPosition=right;points=[];portConstraint=eastwest;" vertex="1" parent="r10WBX3e6Jypb6VtqJ61-28">
          <mxGeometry y="180" width="170" height="4" as="geometry" />
        </mxCell>
        <mxCell id="r10WBX3e6Jypb6VtqJ61-31" value="+ przeglądanieZasobów()&#xa;+ wyszukiwanieZasobów()&#xa;+ rezerwowanieZasobów()&#xa;+ wypożyczanieZasobów()&#xa;+ opłataZaZasób()&#xa;+ edycjaSwoichDanych()" style="text;strokeColor=none;fillColor=none;align=left;verticalAlign=top;spacingLeft=4;spacingRight=4;overflow=hidden;rotatable=0;points=[[0,0.5],[1,0.5]];portConstraint=eastwest;" vertex="1" parent="r10WBX3e6Jypb6VtqJ61-28">
          <mxGeometry y="184" width="170" height="96" as="geometry" />
        </mxCell>
        <mxCell id="r10WBX3e6Jypb6VtqJ61-46" style="edgeStyle=none;rounded=0;orthogonalLoop=1;jettySize=auto;html=1;exitX=0.5;exitY=0;exitDx=0;exitDy=0;entryX=1;entryY=0.5;entryDx=0;entryDy=0;endArrow=blockThin;endFill=0;" edge="1" parent="1" source="r10WBX3e6Jypb6VtqJ61-10" target="r10WBX3e6Jypb6VtqJ61-4">
          <mxGeometry relative="1" as="geometry" />
        </mxCell>
        <mxCell id="r10WBX3e6Jypb6VtqJ61-10" value="Użytkownik&#xa;Zarejestrowany" style="swimlane;fontStyle=1;align=center;verticalAlign=top;childLayout=stackLayout;horizontal=1;startSize=50;horizontalStack=0;resizeParent=1;resizeParentMax=0;resizeLast=0;collapsible=1;marginBottom=0;" vertex="1" parent="1">
          <mxGeometry x="860" y="200" width="220" height="190" as="geometry" />
        </mxCell>
        <mxCell id="r10WBX3e6Jypb6VtqJ61-11" value="+ login:&#xa;+ hasło:&#xa;+ uprawienie:&#xa;+ nazwisko:&#xa;+ adresZamieszkania:&#xa;+ telefon:&#xa;+ uprawnienie:" style="text;strokeColor=none;fillColor=none;align=left;verticalAlign=top;spacingLeft=4;spacingRight=4;overflow=hidden;rotatable=0;points=[[0,0.5],[1,0.5]];portConstraint=eastwest;" vertex="1" parent="r10WBX3e6Jypb6VtqJ61-10">
          <mxGeometry y="50" width="220" height="110" as="geometry" />
        </mxCell>
        <mxCell id="r10WBX3e6Jypb6VtqJ61-12" value="" style="line;strokeWidth=1;fillColor=none;align=left;verticalAlign=middle;spacingTop=-1;spacingLeft=3;spacingRight=3;rotatable=0;labelPosition=right;points=[];portConstraint=eastwest;" vertex="1" parent="r10WBX3e6Jypb6VtqJ61-10">
          <mxGeometry y="160" width="220" height="4" as="geometry" />
        </mxCell>
        <mxCell id="r10WBX3e6Jypb6VtqJ61-13" value="+ logowanieDoSystemu()" style="text;strokeColor=none;fillColor=none;align=left;verticalAlign=top;spacingLeft=4;spacingRight=4;overflow=hidden;rotatable=0;points=[[0,0.5],[1,0.5]];portConstraint=eastwest;" vertex="1" parent="r10WBX3e6Jypb6VtqJ61-10">
          <mxGeometry y="164" width="220" height="26" as="geometry" />
        </mxCell>
        <mxCell id="r10WBX3e6Jypb6VtqJ61-45" style="edgeStyle=none;rounded=0;orthogonalLoop=1;jettySize=auto;html=1;entryX=0.609;entryY=1.009;entryDx=0;entryDy=0;entryPerimeter=0;endArrow=blockThin;endFill=0;" edge="1" parent="1" source="r10WBX3e6Jypb6VtqJ61-6" target="r10WBX3e6Jypb6VtqJ61-4">
          <mxGeometry relative="1" as="geometry" />
        </mxCell>
        <mxCell id="r10WBX3e6Jypb6VtqJ61-6" value="E-bibliotekarz" style="swimlane;fontStyle=1;align=center;verticalAlign=top;childLayout=stackLayout;horizontal=1;startSize=50;horizontalStack=0;resizeParent=1;resizeParentMax=0;resizeLast=0;collapsible=1;marginBottom=0;" vertex="1" parent="1">
          <mxGeometry x="570" y="230" width="220" height="160" as="geometry" />
        </mxCell>
        <mxCell id="r10WBX3e6Jypb6VtqJ61-7" value="+ login:&#xa;+ hasło:&#xa;+ uprawienie:" style="text;strokeColor=none;fillColor=none;align=left;verticalAlign=top;spacingLeft=4;spacingRight=4;overflow=hidden;rotatable=0;points=[[0,0.5],[1,0.5]];portConstraint=eastwest;" vertex="1" parent="r10WBX3e6Jypb6VtqJ61-6">
          <mxGeometry y="50" width="220" height="50" as="geometry" />
        </mxCell>
        <mxCell id="r10WBX3e6Jypb6VtqJ61-8" value="" style="line;strokeWidth=1;fillColor=none;align=left;verticalAlign=middle;spacingTop=-1;spacingLeft=3;spacingRight=3;rotatable=0;labelPosition=right;points=[];portConstraint=eastwest;" vertex="1" parent="r10WBX3e6Jypb6VtqJ61-6">
          <mxGeometry y="100" width="220" height="4" as="geometry" />
        </mxCell>
        <mxCell id="r10WBX3e6Jypb6VtqJ61-9" value="+ logowanieDoSystemu()&#xa;+ przyjmowanieOpłatZaZasób()&#xa;+ wysyłanieOstrzeżeń()" style="text;strokeColor=none;fillColor=none;align=left;verticalAlign=top;spacingLeft=4;spacingRight=4;overflow=hidden;rotatable=0;points=[[0,0.5],[1,0.5]];portConstraint=eastwest;" vertex="1" parent="r10WBX3e6Jypb6VtqJ61-6">
          <mxGeometry y="104" width="220" height="56" as="geometry" />
        </mxCell>
        <mxCell id="r10WBX3e6Jypb6VtqJ61-44" style="rounded=0;orthogonalLoop=1;jettySize=auto;html=1;exitX=0.7;exitY=-0.002;exitDx=0;exitDy=0;endArrow=blockThin;endFill=0;exitPerimeter=0;entryX=0;entryY=0.25;entryDx=0;entryDy=0;" edge="1" parent="1" source="BHRHvB2tTrrgc57krQOK-6" target="r10WBX3e6Jypb6VtqJ61-1">
          <mxGeometry relative="1" as="geometry">
            <mxPoint x="240" y="230" as="sourcePoint" />
            <mxPoint x="395" y="110" as="targetPoint" />
          </mxGeometry>
        </mxCell>
      </root>
    </mxGraphModel>
  </diagram>
</mxfile>
